<?xml version="1.0" encoding="UTF-8"?>
<svg id="Camada_2" data-name="Camada 2" xmlns="http://www.w3.org/2000/svg" viewBox="0 0 506.03 144.79">
  <defs>
    <style>
      .cls-1 {
        fill: #fff;
      }

      .cls-2 {
        fill: #c97a5d;
      }
    </style>
  </defs>
  <g id="Camada_1-2" data-name="Camada 1">
    <g>
      <path class="cls-1" d="M336.98,100.3l24.82,42.38-31.01-.17c-3.63-.02-5.75-3.69-7.51-6.49l-18.22-34.08c-.87-1.63-2.09-3.03-4.06-3.03h-8.05s0,43.77,0,43.77l-30.16-.02-.03-142.62,30.18-.05.06,78.45c2.84.28,5.49.39,8.37-.27l21.92-31.51c2.08-2.62,4.68-4.19,8.06-4.19h28.58s-22.44,31.06-22.44,31.06l-9.78,12.54c3.46,4.77,6.35,9.2,9.28,14.22Z"/>
      <polygon class="cls-1" points=".01 29.33 0 4.05 108.74 4.05 108.75 29.48 70.39 29.45 70.37 142.71 38.09 142.69 37.86 97.7 37.88 29.52 .01 29.33"/>
      <path class="cls-1" d="M99.46,117.26c-.17-6.59,1.78-12.13,5.66-16.92,11.88-14.64,35.37-16.52,53.81-17.14.29-9.81-2.05-18.91-11.81-20.27-6.91-.97-13.59.7-19.34,4.88-4.76,3.47-12.1,4.67-16.84.5-3.59-3.16-4.7-8.34-6.11-12.7,9.12-7.97,19.74-12.5,31.32-14.16,16.08-2.3,33.64-.16,43.66,13.32,4.63,6.23,7.77,13.72,7.83,21.8l.49,66.13-20.19-.52c-4.4-.83-5.49-6.4-5.79-10.36-4.18,2.91-7.28,6.22-11.57,8.22-9.58,4.46-20.23,5.49-30.46,2.98-12.09-2.97-20.34-12.99-20.66-25.76ZM158.3,115.55c.66-5.3.66-9.42.6-14.29-9.64-.07-23.75.33-28.98,7.73-3.01,4.26-1.51,12.03,3.73,13.97,8.91,3.3,18.61-.39,24.65-7.41Z"/>
      <polygon class="cls-1" points="239.92 142.61 209.72 142.68 209.72 .03 239.91 .03 239.92 142.61"/>
      <path class="cls-2" d="M341.63,91.72l8.38.32c7.71.29,16.42-9.19,16.73-16.55l.47-11.27c1.87-14.64,7.1-28.45,16.8-39.58,18.56-21.3,51.23-27.45,77.31-18.31,14.88,5.21,27.9,15.6,35.34,29.6,7.45,14.01,10.41,30.15,9.03,45.72-.96,10.85-4.48,20.67-9.63,30.01-12.33,22.37-38.93,34.69-63.64,32.96-16.1-1.13-29.87-5.88-41.9-16.41-5.83-5.1-11.01-10.77-13.91-18.25,10.23-3.17,18.82-9.2,24.33-18.08,2.31,4.47,3.84,8.86,6.8,12.64,8.51,10.86,19.13,13.58,32.76,12.85,19.19-1.04,30.75-16.52,32.76-35.03l.39-8.51c.78-17-7.21-37.59-24.31-42.94-19.71-6.16-40.11,1.12-47.17,21.22-2.03,5.78-3.04,11.41-3.41,17.73-.83,14.23-10.21,27.02-24.14,30.85-11.08,3.05-27.73.23-33.51-8.43-.08-.12-.18-.23-.25-.28-.55-.38.08-.95.44-.44.07.06.2.13.32.17Z"/>
    </g>
  </g>
</svg>